<svg width="128" height="128" viewBox="0 0 128 128" fill="none" xmlns="http://www.w3.org/2000/svg">
<rect width="128" height="128" fill="white"/>
<path d="M93.444 71.2369C92.5967 71.2369 91.7494 71.3217 90.9021 71.4065L78.7008 49.4433C81.4123 46.2208 83.0221 42.0657 83.0221 37.5712C83.0221 27.3104 74.7184 19 64.466 19C54.2136 19 45.9099 27.3952 45.9099 37.5712C45.9099 41.9809 47.4352 46.0513 50.0618 49.2736L37.3521 71.4912C36.4201 71.3217 35.4882 71.2369 34.556 71.2369C24.3036 71.2369 16 79.5472 16 89.808C16 100.069 24.3036 108.379 34.556 108.379C44.8084 108.379 53.1121 100.069 53.1121 89.808C53.1121 85.3985 51.587 81.3281 48.9603 78.1057L61.6699 55.8881C62.6019 56.0576 63.534 56.1424 64.466 56.1424C65.3134 56.1424 66.1606 56.0576 67.008 55.9728L79.2092 77.9361C76.4978 81.1586 74.8879 85.3137 74.8879 89.808C74.8879 100.069 83.1916 108.379 93.444 108.379C103.696 108.379 112 100.069 112 89.808C112 79.5472 103.696 71.2369 93.444 71.2369ZM64.466 31.2112C67.94 31.2112 70.8208 34.0945 70.8208 37.5712C70.8208 41.048 67.94 43.9312 64.466 43.9312C60.9921 43.9312 58.1112 41.048 58.1112 37.5712C58.1112 34.0945 60.9921 31.2112 64.466 31.2112ZM34.556 96.1681C31.0821 96.1681 28.2012 93.2849 28.2012 89.808C28.2012 86.3314 31.0821 83.4482 34.556 83.4482C38.03 83.4482 40.9109 86.3314 40.9109 89.808C40.9109 93.2849 38.03 96.1681 34.556 96.1681ZM93.444 96.1681C89.9701 96.1681 87.0892 93.2849 87.0892 89.808C87.0892 86.3314 89.9701 83.4482 93.444 83.4482C96.918 83.4482 99.7989 86.3314 99.7989 89.808C99.7989 93.2849 97.0026 96.1681 93.444 96.1681Z" fill="#E34F43"/>
</svg>
